<?xml version="1.0" encoding="utf-8"?>
<!-- Generator: Adobe Illustrator 16.0.0, SVG Export Plug-In . SVG Version: 6.00 Build 0)  -->
<!DOCTYPE svg PUBLIC "-//W3C//DTD SVG 1.1//EN" "http://www.w3.org/Graphics/SVG/1.1/DTD/svg11.dtd">
<svg version="1.1" id="Capa_1" xmlns="http://www.w3.org/2000/svg" xmlns:xlink="http://www.w3.org/1999/xlink" x="0px" y="0px"
	 width="612px" height="792px" viewBox="0 0 612 792" enable-background="new 0 0 612 792" xml:space="preserve">
<g>
	<g>
		<path d="M306.005,207.218c32.353,0,58.587-26.244,58.587-58.607C364.59,116.235,338.357,90,306.005,90
			c-32.364,0-58.609,26.235-58.609,58.609C247.395,180.974,273.64,207.218,306.005,207.218z"/>
	</g>
	<g>
		<path d="M462.085,408.082l-65.32-149.803c-6.582-15.105-20.438-25.128-36.329-27.826c-2.404-0.634-106.46-0.645-108.946,0.021
			c-15.869,2.706-29.696,12.729-36.267,27.815L149.91,408.071c-3.915,8.995-3.038,19.353,2.335,27.562
			c5.373,8.212,14.521,13.153,24.333,13.153c11.573,0,22.038-6.852,26.668-17.459l24.614-56.444v295.378
			c0,17.53,14.209,31.738,31.74,31.738c17.541,0,31.749-14.208,31.749-31.738V471.017h29.306v199.245
			c0,17.53,14.209,31.738,31.739,31.738c17.52,0,31.729-14.208,31.729-31.729V374.863l24.626,56.476
			c4.628,10.606,15.094,17.459,26.668,17.459c9.81,0,18.959-4.941,24.332-13.152C465.126,427.442,466.009,417.077,462.085,408.082z"
			/>
	</g>
</g>
</svg>
