<?xml version="1.0" encoding="utf-8"?>
<!-- Generator: Adobe Illustrator 16.0.0, SVG Export Plug-In . SVG Version: 6.00 Build 0)  -->
<!DOCTYPE svg PUBLIC "-//W3C//DTD SVG 1.1//EN" "http://www.w3.org/Graphics/SVG/1.1/DTD/svg11.dtd">
<svg version="1.1" id="Capa_1" xmlns="http://www.w3.org/2000/svg" xmlns:xlink="http://www.w3.org/1999/xlink" x="0px" y="0px"
	 width="612px" height="792px" viewBox="0 0 612 792" enable-background="new 0 0 612 792" xml:space="preserve">
<g>
	<path fill="#010002" d="M275.777,142.334c0-14.366,4.925-26.68,14.776-36.941C300.405,95.131,312.513,90,326.88,90
		c14.368,0,26.683,5.131,36.942,15.393c10.262,10.26,15.393,22.575,15.393,36.941s-5.132,26.68-15.393,36.941
		c-10.262,10.262-22.574,15.393-36.941,15.393c-14.365,0-26.475-5.132-36.326-15.393C280.703,169.015,275.777,156.7,275.777,142.334
		z"/>
	<path fill="#010002" d="M365.52,209.445h-36.94v227.807v238.889c0,17.239,8.414,25.859,25.243,25.859
		c16.83,0,25.244-8.62,25.244-25.859V273.477h12.313v150.229c0,8.209,3.078,13.955,9.235,17.239c6.156,3.283,12.519,3.284,19.086,0
		c6.566-3.284,9.851-9.029,9.851-17.239V267.32c0-17.239-5.95-31.195-17.854-41.867C399.794,214.78,384.4,209.445,365.52,209.445z"
		/>
	<path fill="#010002" d="M181.651,413.239c2.052,6.979,5.542,10.467,10.467,10.467c13.955,0,22.983-4.104,27.091-12.313
		l50.487-131.759c0.82-3.284,2.463-4.926,4.926-4.926c4.102,0,6.156,2.053,6.156,6.157c0,0.821-0.411,1.231-1.231,1.231
		l-73.883,205.642v11.083v1.23c0,2.462,1.64,5.131,4.926,8.004c3.282,2.872,6.156,4.311,8.619,4.311h48.024v163.772
		c0,6.567,2.667,12.52,8.004,17.855c5.332,5.336,11.283,8.004,17.854,8.004c6.565,0,12.313-2.668,17.239-8.004
		c4.925-5.335,7.388-11.288,7.388-17.855V512.365c0-1.643,4.106-2.463,12.314-2.463V209.444h-32.017
		c-16.42,0-31.195,6.157-44.33,18.471c-13.136,12.314-20.933,25.859-23.396,40.636l-50.487,130.527
		C178.98,401.541,179.597,406.261,181.651,413.239z"/>
</g>
</svg>
