<?xml version="1.0" encoding="utf-8"?>
<!-- Generator: Adobe Illustrator 16.0.0, SVG Export Plug-In . SVG Version: 6.00 Build 0)  -->
<!DOCTYPE svg PUBLIC "-//W3C//DTD SVG 1.1//EN" "http://www.w3.org/Graphics/SVG/1.1/DTD/svg11.dtd">
<svg version="1.1" id="Capa_1" xmlns="http://www.w3.org/2000/svg" xmlns:xlink="http://www.w3.org/1999/xlink" x="0px" y="0px"
	 width="612px" height="792px" viewBox="0 0 612 792" enable-background="new 0 0 612 792" xml:space="preserve">
<g>
	<g>
		<path d="M329.541,207.214c32.349,0,58.588-26.24,58.588-58.608c0.001-32.368-26.239-58.607-58.588-58.607
			c-32.369,0-58.608,26.239-58.608,58.607C270.934,180.974,297.172,207.214,329.541,207.214z"/>
	</g>
	<g>
		<path d="M494.311,390.092L400.79,245.819c-6.413-9.898-17.136-16.162-28.994-16.361c-0.314-0.006-84.215-0.002-84.531,0
			c-11.711,0.078-22.578,6.462-28.994,16.361l-93.52,144.273c-5.309,8.191-5.714,18.632-1.058,27.207
			c4.668,8.575,13.649,13.915,23.408,13.915c9.03,0,17.437-4.57,22.353-12.147l33.109-51.067l-22.962,120.521
			c-0.832,4.361,0.325,8.859,3.156,12.276c2.824,3.424,7.027,5.398,11.467,5.398h17.181v164.059
			c0,17.536,14.211,31.747,31.745,31.747c17.527,0,31.736-14.211,31.736-31.737v-164.07h29.299v164.06
			c0,17.525,14.211,31.737,31.735,31.737c17.527,0,31.736-14.212,31.736-31.737v-164.06h17.181c4.442,0,8.646-1.974,11.466-5.397
			c2.835-3.416,3.988-7.914,3.16-12.277l-22.966-120.531l33.108,51.077c4.915,7.579,13.324,12.148,22.353,12.148
			c9.76,0,18.738-5.34,23.408-13.915C500.025,408.724,499.621,398.283,494.311,390.092z"/>
	</g>
</g>
</svg>
